<svg width="72" height="77" viewBox="0 0 72 77" fill="none" xmlns="http://www.w3.org/2000/svg">
<path d="M45.0945 14.056H11.4092C10.5281 14.056 9.81396 13.3418 9.81396 12.4607C9.81396 11.5796 10.5281 10.8655 11.4092 10.8655H45.0945C45.9756 10.8655 46.6897 11.5796 46.6897 12.4607C46.6897 13.3419 45.9756 14.056 45.0945 14.056Z" fill="url(#paint0_linear_179_465)"/>
<path d="M45.0945 25.3479H11.4092C10.5281 25.3479 9.81396 24.6337 9.81396 23.7526C9.81396 22.8715 10.5281 22.1573 11.4092 22.1573H45.0945C45.9756 22.1573 46.6897 22.8715 46.6897 23.7526C46.6897 24.6337 45.9756 25.3479 45.0945 25.3479Z" fill="url(#paint1_linear_179_465)"/>
<path d="M45.0945 36.6397H11.4092C10.5281 36.6397 9.81396 35.9256 9.81396 35.0445C9.81396 34.1634 10.5281 33.4492 11.4092 33.4492H45.0945C45.9756 33.4492 46.6897 34.1634 46.6897 35.0445C46.6897 35.9256 45.9756 36.6397 45.0945 36.6397Z" fill="url(#paint2_linear_179_465)"/>
<path d="M11.4111 44.7415H34.5661C34.4333 45.8366 34.3369 46.8998 34.2762 47.9312L11.4126 47.932C10.5315 47.932 9.81738 47.2178 9.81738 46.3367C9.81738 45.4556 10.5315 44.7415 11.4126 44.7415L11.4111 44.7415Z" fill="url(#paint3_linear_179_465)"/>
<path d="M34.605 56.0353C34.7628 57.1084 34.9761 58.1732 35.2432 59.225H11.4102C10.5291 59.225 9.81494 58.5109 9.81494 57.6298C9.81494 56.7495 10.5291 56.0353 11.4102 56.0353L34.605 56.0353Z" fill="url(#paint4_linear_179_465)"/>
<path d="M37.7523 65.7652H4.93552V4.32618H51.568V37.042C52.8521 36.5783 54.2522 36.5471 55.5561 36.9539V2.3322C55.5561 1.80322 55.3459 1.29627 54.9717 0.922117C54.5983 0.548719 54.0906 0.338501 53.5624 0.338501H2.94124C2.41226 0.338501 1.90455 0.548719 1.53115 0.922117C1.15699 1.29627 0.946777 1.80324 0.946777 2.3322V67.7599C0.946777 68.2888 1.15699 68.7958 1.53115 69.17C1.90455 69.5434 2.41228 69.7536 2.94124 69.7536H40.3529C39.3701 68.5036 38.4996 67.1694 37.7512 65.7662L37.7523 65.7652Z" fill="url(#paint5_linear_179_465)"/>
<path d="M70.3144 42.3285C70.1201 41.1977 69.4644 40.1982 68.5028 39.5714C67.542 38.9445 66.3634 38.7457 65.2501 39.0242C60.909 40.1087 57.4688 40.1861 55.5601 39.2344C54.383 38.6493 53.0002 38.65 51.8246 39.2367C49.9182 40.1861 46.4809 40.1087 42.1429 39.0242C41.0288 38.7472 39.8494 38.9453 38.8879 39.5721C37.9263 40.199 37.2691 41.1978 37.0733 42.3287C32.9129 66.1423 47.5237 74.2265 52.0962 76.1383L52.0955 76.139C53.117 76.5709 54.2697 76.5709 55.2913 76.139C59.8661 74.2303 74.4747 66.1432 70.3142 42.3294L70.3144 42.3285ZM54.3686 73.931C53.9383 74.1132 53.4518 74.1132 53.0207 73.931C48.858 72.1923 35.576 64.8072 39.4306 42.7404H39.4314C39.5119 42.2607 39.7912 41.8373 40.1994 41.5732C40.6024 41.3106 41.0973 41.2286 41.5632 41.3477C45.0217 42.2114 49.7938 42.9187 52.8879 41.3827V41.3819C53.3942 41.1277 53.9899 41.1261 54.4961 41.3796C57.5932 42.9187 62.3678 42.2114 65.8292 41.3477C66.2944 41.2263 66.7892 41.3083 67.1907 41.5732C67.599 41.8358 67.8775 42.2585 67.9565 42.7381C68.405 45.2364 68.6372 47.7697 68.6501 50.3092C68.6501 66.5572 58.0137 72.4093 54.3686 73.9325L54.3686 73.931Z" fill="url(#paint6_linear_179_465)"/>
<path d="M64.8436 46.7271C64.7442 46.1473 64.4072 45.635 63.9147 45.3132C63.4214 44.9922 62.8165 44.8905 62.2458 45.0339C60.0632 45.5788 56.7056 46.1397 54.6588 45.122C54.0516 44.8184 53.3367 44.8184 52.7288 45.122C50.6843 46.1405 47.3245 45.5796 45.1417 45.0339C44.571 44.8913 43.9669 44.9929 43.4736 45.3147C42.9811 45.6358 42.6441 46.148 42.5447 46.7271C39.6364 63.3743 49.8495 68.934 52.8753 70.1988C53.4004 70.4166 53.9901 70.4166 54.5153 70.1988C57.5403 68.9336 67.7518 63.3745 64.8435 46.7271H64.8436ZM59.887 55.1367L53.4437 62.4536H53.4445C53.1242 62.8171 52.6688 63.0334 52.1846 63.0516C52.1626 63.0523 52.1406 63.0531 52.1186 63.0531L52.1194 63.0523C51.6579 63.0523 51.2147 62.8717 50.8846 62.5499L47.5909 59.3314H47.5916C46.8949 58.6491 46.882 57.532 47.5635 56.8344C48.245 56.1378 49.3622 56.1241 50.0597 56.8048L52.023 58.7242L57.2376 52.8029C57.8819 52.0713 58.9976 52.0007 59.7291 52.6451C60.4607 53.2894 60.5313 54.405 59.887 55.1366L59.887 55.1367Z" fill="url(#paint7_linear_179_465)"/>
<defs>
<linearGradient id="paint0_linear_179_465" x1="3.26682" y1="13.366" x2="48.1028" y2="19.8339" gradientUnits="userSpaceOnUse">
<stop stop-color="#A13455"/>
<stop offset="0.908937" stop-color="#1A1E44"/>
</linearGradient>
<linearGradient id="paint1_linear_179_465" x1="3.26682" y1="24.6579" x2="48.1028" y2="31.1258" gradientUnits="userSpaceOnUse">
<stop stop-color="#A13455"/>
<stop offset="0.908937" stop-color="#1A1E44"/>
</linearGradient>
<linearGradient id="paint2_linear_179_465" x1="3.26682" y1="35.9498" x2="48.1028" y2="42.4176" gradientUnits="userSpaceOnUse">
<stop stop-color="#A13455"/>
<stop offset="0.908937" stop-color="#1A1E44"/>
</linearGradient>
<linearGradient id="paint3_linear_179_465" x1="5.42335" y1="47.242" x2="35.8554" y2="50.1883" gradientUnits="userSpaceOnUse">
<stop stop-color="#A13455"/>
<stop offset="0.908937" stop-color="#1A1E44"/>
</linearGradient>
<linearGradient id="paint4_linear_179_465" x1="5.30026" y1="58.5352" x2="36.5516" y2="61.6447" gradientUnits="userSpaceOnUse">
<stop stop-color="#A13455"/>
<stop offset="0.908937" stop-color="#1A1E44"/>
</linearGradient>
<linearGradient id="paint5_linear_179_465" x1="-8.74888" y1="54.7417" x2="59.0239" y2="55.4071" gradientUnits="userSpaceOnUse">
<stop stop-color="#A13455"/>
<stop offset="0.908937" stop-color="#1A1E44"/>
</linearGradient>
<linearGradient id="paint6_linear_179_465" x1="30.173" y1="68.317" x2="73.2541" y2="68.8126" gradientUnits="userSpaceOnUse">
<stop stop-color="#A13455"/>
<stop offset="0.908937" stop-color="#1A1E44"/>
</linearGradient>
<linearGradient id="paint7_linear_179_465" x1="37.8872" y1="64.8544" x2="66.8395" y2="65.1854" gradientUnits="userSpaceOnUse">
<stop stop-color="#A13455"/>
<stop offset="0.908937" stop-color="#1A1E44"/>
</linearGradient>
</defs>
</svg>
