<svg width="11" height="7" viewBox="0 0 11 7" fill="none" xmlns="http://www.w3.org/2000/svg">
<path fill-rule="evenodd" clip-rule="evenodd" d="M0.292787 0.305288C0.480314 0.117817 0.734622 0.0125018 0.999786 0.0125018C1.26495 0.0125018 1.51926 0.117817 1.70679 0.305288L4.99979 3.59829L8.29279 0.305288C8.38503 0.209778 8.49538 0.133596 8.61738 0.0811869C8.73939 0.0287779 8.87061 0.00119157 9.00339 3.77571e-05C9.13616 -0.00111606 9.26784 0.0241854 9.39074 0.0744663C9.51364 0.124747 9.62529 0.199 9.71918 0.292893C9.81307 0.386786 9.88733 0.498438 9.93761 0.621334C9.98789 0.74423 10.0132 0.87591 10.012 1.00869C10.0109 1.14147 9.9833 1.27269 9.93089 1.39469C9.87848 1.5167 9.8023 1.62704 9.70679 1.71929L5.70679 5.71929C5.51926 5.90676 5.26495 6.01207 4.99979 6.01207C4.73462 6.01207 4.48031 5.90676 4.29279 5.71929L0.292787 1.71929C0.105316 1.53176 0 1.27745 0 1.01229C0 0.747124 0.105316 0.492816 0.292787 0.305288V0.305288Z" fill="white"/>
</svg>
