<svg width="262" height="154" viewBox="0 0 262 154" fill="none" xmlns="http://www.w3.org/2000/svg">
<path d="M213.045 64.8596C213.045 77.8983 204.526 85.9363 191.773 85.9363H176.52V62.0278L185.934 52.591V77.0641H191.418C197.912 77.0641 203.212 73.3125 203.212 64.8596C203.212 56.4068 197.912 52.5953 191.418 52.5953H176.52V43.7189H191.833C204.526 43.7189 213.045 51.821 213.045 64.8596Z" fill="white"/>
<path d="M157.889 66.3483L137.267 86.056H119.214L132.477 63.1058L138.633 73.2013H150.692L138.329 52.9803L144.245 42.7393L157.889 66.3483ZM162.765 74.7841L151.001 86.056H169.281L162.765 74.7841Z" fill="white"/>
<path d="M120.392 97.8927H124.36V111.89H132.747V115.41H120.392V97.8927Z" fill="white"/>
<path d="M151.009 97.8927H155.402L161.815 115.41H157.478L156.138 111.393H149.96L148.62 115.41H144.468L151.009 97.8927ZM155.188 108.322L153.06 101.704L150.877 108.322H155.188Z" fill="white"/>
<path d="M174.217 97.8927H180.788C181.876 97.8927 182.792 98.021 183.549 98.2734C184.303 98.5301 184.915 98.8638 185.39 99.283C185.861 99.7022 186.204 100.19 186.413 100.742C186.623 101.294 186.73 101.867 186.73 102.461C186.73 103.022 186.632 103.518 186.426 103.946C186.225 104.374 185.99 104.741 185.716 105.049C185.446 105.357 185.163 105.597 184.864 105.772C184.564 105.948 184.312 106.063 184.102 106.115C184.436 106.2 184.782 106.333 185.155 106.508C185.874 106.825 186.469 107.312 186.94 107.98C187.415 108.643 187.651 109.451 187.651 110.397C187.651 111.308 187.488 112.078 187.167 112.707C186.842 113.335 186.388 113.853 185.801 114.255C185.215 114.657 184.496 114.952 183.648 115.136C182.8 115.32 181.846 115.414 180.797 115.414H174.225V97.8927H174.217ZM180.42 104.908C180.72 104.908 181.011 104.874 181.302 104.806C181.593 104.737 181.846 104.626 182.064 104.476C182.282 104.326 182.462 104.125 182.603 103.873C182.745 103.616 182.813 103.308 182.813 102.94C182.813 102.555 182.74 102.235 182.603 101.982C182.462 101.73 182.278 101.529 182.051 101.379C181.824 101.234 181.563 101.127 181.276 101.063C180.985 101.003 180.703 100.973 180.424 100.973H178.087V104.913H180.42V104.908ZM180.66 112.364C180.938 112.364 181.255 112.343 181.606 112.3C181.957 112.257 182.282 112.155 182.582 111.997C182.877 111.838 183.126 111.612 183.331 111.312C183.532 111.013 183.631 110.602 183.631 110.08C183.631 109.605 183.532 109.22 183.34 108.925C183.147 108.63 182.903 108.395 182.603 108.228C182.304 108.061 181.983 107.95 181.632 107.886C181.281 107.826 180.959 107.796 180.66 107.796H178.083V112.364H180.66Z" fill="white"/>
<path d="M202.181 110.187C202.408 110.435 202.678 110.683 202.982 110.936C203.29 111.188 203.633 111.419 204.005 111.633C204.382 111.843 204.793 112.014 205.242 112.146C205.688 112.279 206.167 112.343 206.672 112.343C206.972 112.343 207.267 112.3 207.567 112.21C207.867 112.125 208.136 111.997 208.385 111.83C208.629 111.663 208.826 111.462 208.975 111.227C209.121 110.991 209.198 110.722 209.198 110.427C209.198 109.781 208.881 109.276 208.252 108.917C207.623 108.557 206.621 108.202 205.255 107.851C204.587 107.693 203.971 107.466 203.401 107.167C202.832 106.867 202.34 106.512 201.933 106.089C201.522 105.67 201.201 105.191 200.974 104.643C200.747 104.1 200.632 103.497 200.632 102.834C200.632 102.098 200.764 101.405 201.026 100.759C201.287 100.109 201.685 99.5353 202.22 99.0391C202.755 98.5429 203.419 98.1451 204.219 97.8584C205.015 97.5676 205.957 97.4264 207.045 97.4264C207.939 97.4264 208.727 97.5162 209.412 97.7002C210.093 97.8841 210.675 98.1023 211.159 98.3547C211.642 98.6071 212.036 98.8723 212.34 99.1418C212.649 99.4113 212.88 99.6294 213.038 99.7834L210.752 102.303C210.559 102.145 210.337 101.974 210.084 101.79C209.827 101.606 209.545 101.435 209.232 101.276C208.915 101.118 208.569 100.986 208.192 100.883C207.815 100.78 207.417 100.725 206.998 100.725C206.719 100.725 206.441 100.767 206.167 100.857C205.897 100.943 205.649 101.063 205.431 101.212C205.212 101.362 205.037 101.537 204.904 101.738C204.771 101.939 204.707 102.153 204.707 102.38C204.707 102.975 205.024 103.458 205.653 103.826C206.287 104.194 207.152 104.502 208.256 104.746C208.903 104.904 209.54 105.118 210.161 105.387C210.782 105.661 211.339 106.012 211.831 106.453C212.319 106.889 212.717 107.428 213.012 108.07C213.312 108.707 213.458 109.481 213.458 110.392C213.458 111.179 213.282 111.907 212.931 112.574C212.58 113.241 212.101 113.819 211.497 114.307C210.893 114.794 210.183 115.179 209.369 115.449C208.552 115.718 207.674 115.855 206.728 115.855C205.85 115.855 205.054 115.77 204.335 115.603C203.616 115.436 202.969 115.218 202.391 114.944C201.813 114.674 201.291 114.362 200.824 114.011C200.362 113.661 199.96 113.301 199.63 112.933L202.181 110.187Z" fill="white"/>
<path d="M115.593 81.2863C112.377 84.623 107.484 87.2495 100.378 87.2495C88.2238 87.2495 78.4502 78.4972 78.4502 65.3387C78.4502 52.1803 88.4593 43.2526 100.258 43.2526C106.778 43.2526 111.414 45.4086 114.574 48.3217L109.372 56.6078C107.784 54.409 104.984 52.4198 100.258 52.4198C94.5983 52.4198 88.2238 56.4666 88.2238 65.3387C88.2238 73.2569 94.0632 77.8427 100.378 77.8427C105.742 77.8427 108.734 75.229 110.288 72.6366L115.593 81.2863Z" fill="white"/>
<path d="M70.9626 52.946V44.014H62.6488H44.1504V86.2272H70.9626V77.2952H53.5644V69.1973H63.9759L68.6936 60.9198H53.5644V52.946H70.9626Z" fill="white"/>
</svg>
