<svg width="153" height="181" viewBox="0 0 153 181" fill="none" xmlns="http://www.w3.org/2000/svg">
<path d="M82.2541 134.238C80.8792 134.238 79.5044 133.731 78.4914 132.646L35.6547 89.8093C19.3015 73.4561 17.4202 57.1753 18.7226 46.4661C20.0974 35.2504 25.7415 23.6005 33.9904 15.424C37.8978 11.5165 48.8241 2.10985 64.9602 0.300868C75.6694 -0.92924 91.8778 1.02445 108.231 17.3776L151.068 60.2143C153.166 62.3128 153.166 65.7136 151.068 67.8121C148.969 69.9105 145.568 69.9105 143.47 67.8121L100.633 24.9754C89.9241 14.2662 78.3466 9.56285 66.1903 10.9377C57.2901 11.9507 48.1005 16.5093 41.5158 23.0217C39.0556 25.4819 30.879 34.5268 29.2871 47.7685C27.8399 59.9973 32.5432 71.6471 43.1801 82.3563L86.0167 125.193C88.1151 127.291 88.1151 130.692 86.0167 132.791C85.0037 133.731 83.6289 134.238 82.2541 134.238Z" fill="url(#paint0_linear_167_530)"/>
<path d="M49.9823 31.3429C40.2862 41.039 36.2341 57.8264 50.1994 71.7917L94.7727 116.365C106.929 128.521 97.0882 139.592 94.9898 141.691C93.6874 142.993 81.7481 154.209 69.3746 141.763L24.8013 97.1898C22.7029 95.0914 19.302 95.0914 17.276 97.1898C15.1775 99.2883 15.1775 102.689 17.276 104.715L61.8493 149.289C75.8146 163.254 92.7467 159.057 102.588 149.216C112.284 139.52 116.336 122.733 102.37 108.767L57.7971 64.194C45.6408 52.0377 55.4817 40.9667 57.5801 38.8683C58.8825 37.5658 70.8218 26.3501 83.1953 38.7959L127.769 83.3692C129.867 85.4676 133.268 85.4676 135.294 83.3692C137.392 81.2708 137.392 77.8699 135.294 75.8439L90.7206 31.2705C76.7553 17.3052 59.7509 21.5744 49.9823 31.3429Z" fill="url(#paint1_linear_167_530)"/>
<path d="M118.651 165.208C114.744 169.115 103.817 178.522 87.6813 180.331C76.9722 181.561 60.7637 179.607 44.4105 163.254L1.57381 120.417C-0.524605 118.319 -0.524605 114.918 1.57381 112.892C3.67223 110.793 7.07311 110.793 9.09917 112.892L51.9359 155.728C76.0315 179.824 100.417 168.247 111.053 157.61C113.514 155.15 121.69 146.105 123.282 132.863C124.729 120.634 120.026 108.984 109.389 98.2752L66.5524 55.4385C64.454 53.3401 64.454 49.9392 66.5524 47.9132C68.6509 45.8148 72.0517 45.8148 74.0778 47.9132L116.914 90.7498C147.016 120.924 131.242 152.617 118.651 165.208Z" fill="url(#paint2_linear_167_530)"/>
<defs>
<linearGradient id="paint0_linear_167_530" x1="21.5405" y1="112.467" x2="92.944" y2="41.0632" gradientUnits="userSpaceOnUse">
<stop offset="0.00124008" stop-color="#C1235D"/>
<stop offset="1" stop-color="#1C235F"/>
</linearGradient>
<linearGradient id="paint1_linear_167_530" x1="37.8253" y1="128.751" x2="109.229" y2="57.3473" gradientUnits="userSpaceOnUse">
<stop offset="0.00124008" stop-color="#C1235D"/>
<stop offset="1" stop-color="#1C235F"/>
</linearGradient>
<linearGradient id="paint2_linear_167_530" x1="54.11" y1="145.036" x2="125.513" y2="73.6322" gradientUnits="userSpaceOnUse">
<stop offset="0.00124008" stop-color="#C1235D"/>
<stop offset="1" stop-color="#1C235F"/>
</linearGradient>
</defs>
</svg>
