<svg width="42" height="49" viewBox="0 0 42 49" fill="none" xmlns="http://www.w3.org/2000/svg">
<path d="M22.3185 36.3911C21.9458 36.3911 21.5731 36.2538 21.2985 35.9595L9.68573 24.3468C5.25248 19.9135 4.74246 15.4999 5.09555 12.5967C5.46825 9.55617 6.99832 6.39797 9.23456 4.18134C10.2938 3.12207 13.2559 0.571968 17.6303 0.0815633C20.5335 -0.251912 24.9275 0.277725 29.3607 4.71098L40.9735 16.3238C41.5424 16.8926 41.5424 17.8146 40.9735 18.3834C40.4046 18.9523 39.4827 18.9523 38.9138 18.3834L27.301 6.77068C24.3979 3.86748 21.2593 2.59243 17.9638 2.96514C15.5313 3.22015 13.0401 4.43635 11.255 6.22142C10.5881 6.88837 8.37145 9.34039 7.93989 12.9302C7.54757 16.2453 8.82262 19.4035 11.7062 22.3067L23.319 33.9195C23.8878 34.4883 23.8878 35.4103 23.319 35.9792C23.064 36.2538 22.6912 36.3911 22.3185 36.3911Z" fill="white"/>
<path d="M13.5505 8.49666C10.9219 11.1252 9.82341 15.6762 13.6093 19.4621L25.6929 31.5457C28.9884 34.8412 26.3206 37.8424 25.7517 38.4113C25.3987 38.7644 22.162 41.8049 18.8076 38.4309L6.72406 26.3474C6.15519 25.7785 5.23323 25.7785 4.68398 26.3474C4.11511 26.9162 4.11511 27.8382 4.68398 28.3875L16.7675 40.471C20.5535 44.2569 25.1436 43.1192 27.8114 40.4514C30.44 37.8228 31.5385 33.2719 27.7526 29.486L15.669 17.4024C12.3735 14.1069 15.0413 11.1056 15.6102 10.5367C15.9633 10.1837 19.1999 7.14315 22.5543 10.5171L34.6379 22.6007C35.2067 23.1696 36.1287 23.1696 36.6779 22.6007C37.2468 22.0318 37.2468 21.1099 36.6779 20.5606L24.5944 8.47705C20.8085 4.69113 16.2183 5.84848 13.5505 8.49666Z" fill="white"/>
<path d="M32.1656 44.7866C31.1063 45.8459 28.1443 48.396 23.7699 48.8864C20.8667 49.2199 16.4727 48.6903 12.0394 44.257L0.426652 32.6442C-0.142217 32.0754 -0.142217 31.1534 0.426652 30.6041C0.995521 30.0353 1.91748 30.0353 2.46673 30.6041L14.0795 42.2169C20.6117 48.7491 27.2223 45.6105 30.1059 42.7269C30.7729 42.06 32.9895 39.608 33.4211 36.0182C33.8134 32.7031 32.5383 29.5449 29.6547 26.6417L18.042 15.0485C17.4731 14.4797 17.4731 13.5577 18.042 13.0084C18.6108 12.4396 19.5328 12.4396 20.0821 13.0084L31.6948 24.6212C39.8748 32.7815 35.5788 41.393 32.1656 44.7866Z" fill="white"/>
</svg>
