<svg width="196" height="49" viewBox="0 0 196 49" fill="none" xmlns="http://www.w3.org/2000/svg">
<path d="M45.23 37.6464L48.1332 35.0767C49.0551 36.1556 50.3106 37.1168 52.4291 37.1168C53.8219 37.1168 54.7242 36.5087 54.7242 35.4298C54.7242 32.5658 45.8969 33.684 45.8969 27.0341C45.8969 23.562 48.859 21.5023 52.6841 21.5023C56.215 21.5023 58.1963 23.3659 59.079 24.8175L55.8227 27.2499C55.2538 26.5437 54.2142 25.4648 52.4683 25.4648C51.3306 25.4648 50.546 26.0337 50.546 26.9752C50.546 29.9373 59.4125 28.5053 59.4125 35.1944C59.4125 38.843 56.2739 41.1185 52.233 41.1185C48.5255 41.1185 46.2304 39.255 45.23 37.6464Z" fill="white"/>
<path d="M64.5319 14.6368C66.1797 14.6368 67.4351 15.853 67.4351 17.4616C67.4351 19.0701 66.1797 20.2863 64.5319 20.2863C62.9234 20.2863 61.668 19.0701 61.668 17.4616C61.668 15.853 62.9234 14.6368 64.5319 14.6368ZM62.0995 21.9537H67.0232V40.6479H62.0995V21.9537Z" fill="white"/>
<path d="M73.8501 42.0012C74.4582 42.3151 76.5963 43.2959 79.1661 43.2959C81.8535 43.2959 84.3055 42.472 84.3055 39.5884V38.7253C83.9132 39.255 82.0889 41.1185 78.8326 41.1185C73.4381 41.1185 69.9072 37.0776 69.9072 31.33C69.9072 25.5825 73.6931 21.5023 79.0287 21.5023C82.1673 21.5023 84.0701 23.2089 84.5997 23.9347V21.9731H89.2488V38.2938C89.2488 45.2575 84.7174 47.5134 79.2053 47.5134C76.6356 47.5134 74.0266 46.7287 72.3396 45.8067L73.8501 42.0012ZM79.6565 25.8571C76.871 25.8571 74.9093 27.9953 74.9093 31.2908C74.9093 34.5863 76.9102 36.7637 79.6957 36.7637C82.5597 36.7637 84.482 34.6255 84.482 31.2908C84.4624 28.113 82.54 25.8571 79.6565 25.8571Z" fill="white"/>
<path d="M109.335 29.8589V40.6478H104.411V29.29C104.411 27.2107 102.979 25.9356 101.312 25.9356C99.272 25.9356 97.9969 27.4461 97.9969 29.4469V40.6674H93.0732V21.9732H97.8988V24.1506C98.6835 22.8559 100.469 21.5024 102.901 21.5024C108.197 21.4828 109.335 25.8964 109.335 29.8589Z" fill="white"/>
<path d="M119.301 28.6818C121.204 28.6818 122.655 29.2507 123.342 29.7215V28.5053C123.342 26.8575 122.126 25.759 119.948 25.759C118.085 25.759 116.378 26.3671 114.985 27.0733L113.122 23.7189C114.809 22.5812 117.633 21.5023 120.478 21.5023C126.48 21.5023 128.265 24.6409 128.265 28.8192V40.6477H123.911L123.597 39.4315C122.636 40.4712 121.204 41.1185 119.065 41.1185C115.28 41.1185 112.062 38.8038 112.062 34.8609C112.062 31.1731 114.946 28.6818 119.301 28.6818ZM120.242 37.2933C122.106 37.2933 123.46 36.2929 123.46 34.7236C123.46 33.0759 122.106 32.1147 120.203 32.1147C118.3 32.1147 116.986 33.1936 116.986 34.7236C116.986 36.2537 118.379 37.2933 120.242 37.2933Z" fill="white"/>
<path d="M132.463 18.0303H137.328V21.9535H140.839V25.9552H137.328V33.174C137.328 35.9595 138.191 36.5283 140.074 36.5283C140.388 36.5283 140.565 36.5283 140.977 36.4891V40.7066C140.977 40.7066 140.231 40.8831 138.878 40.8831C134.405 40.8831 132.444 38.3722 132.444 33.3113V25.9552H130.482V21.9535H132.483V18.0303H132.463Z" fill="white"/>
<path d="M152.961 21.4827C158.67 21.4827 163.044 25.7001 163.044 31.3496C163.044 36.9991 158.827 41.0988 152.961 41.0988C147.135 41.0988 142.918 36.9991 142.918 31.3496C142.918 25.6805 147.292 21.4827 152.961 21.4827ZM152.961 36.744C155.923 36.744 158.101 34.5274 158.101 31.3496C158.101 28.1718 155.923 25.8375 152.961 25.8375C149.999 25.8375 147.861 28.1325 147.861 31.3496C147.861 34.5274 150.039 36.744 152.961 36.744Z" fill="white"/>
<path d="M175.913 26.5044C172.225 26.5044 170.871 28.7995 170.871 32.507V40.6477H165.948V21.9535H170.773V24.6605C171.597 22.7969 173.461 21.4827 175.913 21.4827V26.5044Z" fill="white"/>
<path d="M181.739 47.0426L184.348 40.1769L177.168 21.9535H182.465L186.643 34.1351L190.861 21.9535H196L186.467 47.0426H181.739Z" fill="white"/>
<path d="M22.3185 36.3911C21.9458 36.3911 21.5731 36.2538 21.2985 35.9595L9.68573 24.3468C5.25248 19.9135 4.74246 15.4999 5.09555 12.5967C5.46825 9.55617 6.99832 6.39797 9.23456 4.18134C10.2938 3.12207 13.2559 0.571968 17.6303 0.0815633C20.5335 -0.251912 24.9275 0.277725 29.3607 4.71098L40.9735 16.3238C41.5424 16.8926 41.5424 17.8146 40.9735 18.3834C40.4046 18.9523 39.4827 18.9523 38.9138 18.3834L27.301 6.77068C24.3979 3.86748 21.2593 2.59243 17.9638 2.96514C15.5313 3.22015 13.0401 4.43635 11.255 6.22142C10.5881 6.88837 8.37145 9.34039 7.93989 12.9302C7.54757 16.2453 8.82262 19.4035 11.7062 22.3067L23.319 33.9195C23.8878 34.4883 23.8878 35.4103 23.319 35.9791C23.064 36.2538 22.6912 36.3911 22.3185 36.3911Z" fill="white"/>
<path d="M13.5505 8.49666C10.9219 11.1252 9.82341 15.6762 13.6093 19.4621L25.6929 31.5457C28.9884 34.8412 26.3206 37.8424 25.7517 38.4113C25.3987 38.7644 22.162 41.8049 18.8076 38.4309L6.72406 26.3474C6.15519 25.7785 5.23323 25.7785 4.68398 26.3474C4.11511 26.9162 4.11511 27.8382 4.68398 28.3875L16.7675 40.471C20.5535 44.2569 25.1436 43.1192 27.8114 40.4514C30.44 37.8228 31.5385 33.2719 27.7526 29.486L15.669 17.4024C12.3735 14.1069 15.0413 11.1056 15.6102 10.5367C15.9633 10.1837 19.1999 7.14315 22.5543 10.5171L34.6379 22.6007C35.2067 23.1696 36.1287 23.1696 36.6779 22.6007C37.2468 22.0318 37.2468 21.1099 36.6779 20.5606L24.5944 8.47705C20.8085 4.69113 16.2183 5.84848 13.5505 8.49666Z" fill="white"/>
<path d="M32.1656 44.7868C31.1063 45.846 28.1443 48.3961 23.7699 48.8865C20.8667 49.22 16.4727 48.6904 12.0394 44.2571L0.426652 32.6444C-0.142217 32.0755 -0.142217 31.1535 0.426652 30.6043C0.995521 30.0354 1.91748 30.0354 2.46673 30.6043L14.0795 42.217C20.6117 48.7492 27.2223 45.6106 30.1059 42.7271C30.7729 42.0601 32.9895 39.6081 33.4211 36.0183C33.8134 32.7032 32.5383 29.545 29.6547 26.6418L18.042 15.0486C17.4731 14.4798 17.4731 13.5578 18.042 13.0086C18.6108 12.4397 19.5328 12.4397 20.0821 13.0086L31.6948 24.6213C39.8748 32.7817 35.5788 41.3932 32.1656 44.7868Z" fill="white"/>
</svg>
