<svg width="30" height="30" viewBox="0 0 30 30" fill="none" xmlns="http://www.w3.org/2000/svg">
<path d="M10.5308 23.2404C10.5308 23.352 10.4056 23.4413 10.2478 23.4413C10.0681 23.4581 9.94294 23.3688 9.94294 23.2404C9.94294 23.1287 10.0681 23.0394 10.226 23.0394C10.3893 23.0226 10.5308 23.1119 10.5308 23.2404ZM8.8379 22.9891C8.7998 23.1008 8.90867 23.2292 9.07198 23.2627C9.21351 23.3185 9.37681 23.2627 9.40948 23.151C9.44214 23.0394 9.33871 22.911 9.1754 22.8607C9.03387 22.8216 8.87601 22.8775 8.8379 22.9891ZM11.244 22.8942C11.0861 22.9333 10.9772 23.0394 10.9935 23.1678C11.0099 23.2794 11.1514 23.352 11.3147 23.3129C11.4726 23.2739 11.5815 23.1678 11.5651 23.0561C11.5488 22.95 11.4018 22.8775 11.244 22.8942ZM14.8258 1.5C7.27561 1.5 1.5 7.37894 1.5 15.1226C1.5 21.3142 5.2996 26.6125 10.7268 28.4773C11.4236 28.6057 11.6685 28.1646 11.6685 27.8017C11.6685 27.4556 11.6522 25.5462 11.6522 24.3737C11.6522 24.3737 7.84173 25.2112 7.04153 22.71C7.04153 22.71 6.42097 21.0853 5.52823 20.6666C5.52823 20.6666 4.28165 19.79 5.61532 19.8068C5.61532 19.8068 6.97077 19.9185 7.71653 21.2472C8.90867 23.4023 10.9065 22.7826 11.6849 22.4141C11.8101 21.5208 12.1639 20.9011 12.5558 20.5326C9.5129 20.1864 6.44274 19.7342 6.44274 14.3633C6.44274 12.828 6.85645 12.0575 7.72742 11.0749C7.58589 10.712 7.12319 9.21576 7.86895 7.28403C9.00665 6.92113 11.625 8.79145 11.625 8.79145C12.7137 8.4788 13.8841 8.31689 15.0435 8.31689C16.203 8.31689 17.3734 8.4788 18.4621 8.79145C18.4621 8.79145 21.0804 6.91555 22.2181 7.28403C22.9639 9.22134 22.5012 10.712 22.3597 11.0749C23.2306 12.0631 23.7641 12.8336 23.7641 14.3633C23.7641 19.751 20.5579 20.1809 17.5149 20.5326C18.0157 20.9736 18.4403 21.8111 18.4403 23.1231C18.4403 25.0046 18.424 27.3327 18.424 27.7905C18.424 28.1534 18.6744 28.5945 19.3657 28.4661C24.8093 26.6125 28.5 21.3142 28.5 15.1226C28.5 7.37894 22.376 1.5 14.8258 1.5ZM6.79113 20.7559C6.72036 20.8117 6.73669 20.9401 6.82923 21.0462C6.91633 21.1356 7.04153 21.1746 7.1123 21.1021C7.18306 21.0462 7.16673 20.9178 7.07419 20.8117C6.9871 20.7224 6.8619 20.6833 6.79113 20.7559ZM6.20323 20.3037C6.16512 20.3763 6.21956 20.4656 6.32843 20.5214C6.41552 20.5772 6.5244 20.5605 6.5625 20.4823C6.6006 20.4098 6.54617 20.3204 6.4373 20.2646C6.32843 20.2311 6.24133 20.2478 6.20323 20.3037ZM7.96694 22.2912C7.87984 22.3638 7.9125 22.5313 8.0377 22.6374C8.1629 22.7658 8.32077 22.7826 8.39153 22.6932C8.4623 22.6206 8.42964 22.4532 8.32077 22.3471C8.20101 22.2187 8.0377 22.2019 7.96694 22.2912ZM7.34637 21.4705C7.25927 21.5264 7.25927 21.6715 7.34637 21.7999C7.43347 21.9283 7.58044 21.9842 7.65121 21.9283C7.73831 21.8558 7.73831 21.7106 7.65121 21.5822C7.575 21.4538 7.43347 21.398 7.34637 21.4705Z" fill="#E4A45C"/>
</svg>
