<svg width="59" height="92" viewBox="0 0 59 92" fill="none" xmlns="http://www.w3.org/2000/svg">
<path d="M1.58547 20.0451C1.32108 20.3095 1.17188 20.6683 1.17188 21.0429C1.17188 21.4168 1.32107 21.7757 1.58547 22.0407L14.0376 34.4991C14.5884 35.0499 15.4817 35.0499 16.0325 34.4991C16.5834 33.9482 16.5834 33.0549 16.0325 32.5034L3.57417 20.0451C3.02396 19.498 2.1357 19.498 1.58547 20.0451V20.0451Z" fill="url(#paint0_linear_179_432)"/>
<path d="M41.8315 26.92V9.52611C41.8315 8.74676 41.2001 8.11597 40.4214 8.11597C39.6427 8.11597 39.0112 8.74676 39.0112 9.52611V26.92C39.0112 27.6987 39.6427 28.3301 40.4214 28.3301C41.2001 28.3301 41.8315 27.6987 41.8315 26.92Z" fill="url(#paint1_linear_179_432)"/>
<path d="M19.967 1.93844C19.7724 1.18301 19.0019 0.728494 18.2464 0.923641C17.491 1.11816 17.0365 1.88808 17.231 2.64353L21.4614 19.5652C21.6559 20.3206 22.4265 20.7751 23.182 20.5806C23.5446 20.4874 23.8555 20.2533 24.0457 19.931C24.2364 19.608 24.2905 19.2234 24.1974 18.8601L19.967 1.93844Z" fill="url(#paint2_linear_179_432)"/>
<path d="M1.3742 52.1959C5.80236 58.5416 5.76706 61.4041 5.7387 64.1821C5.52718 84.3753 19.5228 90.6154 27.8352 91.115C28.4697 91.1502 29.0829 91.1716 29.6967 91.1716C33.5407 91.2169 37.3505 90.447 40.8752 88.9117C44.3999 87.3769 47.5589 85.1119 50.1437 82.2665L54.7619 77.1761L54.8393 77.0842L57.1308 74.5529C58.2174 73.4651 58.8758 72.0216 58.9841 70.488C59.0924 68.9538 58.6436 67.4322 57.7201 66.2028C56.7972 64.9733 55.4613 64.1177 53.958 63.7936C54.4037 62.1738 54.1172 60.4401 53.1748 59.0501C52.2318 57.6594 50.7271 56.7516 49.0577 56.5666C49.2869 55.9333 49.4058 55.266 49.4102 54.5924C49.414 53.1218 48.9072 51.6959 47.9762 50.5578C47.0451 49.4196 45.7477 48.6403 44.3055 48.3525L51.9555 40.6741C53.168 39.4661 53.8441 37.8211 53.8316 36.1088C53.8196 34.3971 53.1196 32.7622 51.8901 31.5712C50.6606 30.3808 49.0037 29.7337 47.2927 29.7764C45.581 29.8186 43.9587 30.5469 42.7898 31.7972C34.4063 40.7447 23.9858 50.9267 19.8746 52.5963C17.4774 53.5834 16.8995 52.8148 15.0449 49.776C13.7569 47.3952 12.0465 45.2692 9.99673 43.5008C7.55727 41.5197 4.68736 41.463 2.3114 43.346C-0.374797 45.4681 -0.762544 49.1206 1.3734 52.1945L1.3742 52.1959ZM52.5969 66.4806C53.5418 66.4774 54.4489 66.8532 55.1143 67.5243C55.7854 68.2042 56.1575 69.124 56.1486 70.0795C56.1392 71.0351 55.7489 71.948 55.0646 72.6145L52.8298 75.0754C52.2311 75.3581 51.5607 75.4506 50.9072 75.3411C50.2544 75.2315 49.6506 74.925 49.1773 74.4623L49.0501 74.3282H49.0508C48.4741 73.7629 48.1273 73.0036 48.0781 72.1972C48.0284 71.3914 48.2796 70.5957 48.7826 69.9637L52.3079 66.4383L52.5969 66.4806ZM50.4817 60.1772C51.0042 60.6953 51.3114 61.3909 51.3429 62.1256C51.3743 62.8602 51.1269 63.5798 50.651 64.1401C50.5925 64.1942 50.5377 64.2527 50.4892 64.3163L46.442 68.3635C45.8704 68.5725 45.2516 68.6172 44.6561 68.4926C44.0606 68.3679 43.5116 68.079 43.0716 67.6584L42.9022 67.4891C42.3476 66.9125 42.0215 66.1539 41.985 65.3544C41.9485 64.5555 42.2047 63.7699 42.7052 63.146C43.2692 62.7091 45.6312 60.8407 46.8865 59.7617H46.8858C47.4449 59.423 48.0995 59.2807 48.748 59.3557C49.397 59.4312 50.002 59.7202 50.4679 60.1772L50.4817 60.1772ZM45.5462 52.062C46.2173 52.7274 46.5937 53.6346 46.5899 54.5795C46.498 55.7246 45.9673 56.7904 45.1093 57.5546C44.2494 58.3019 42.3947 59.7894 41.0268 60.8616C40.4439 61.0278 39.8263 61.0347 39.2396 60.8811C38.6529 60.7269 38.1184 60.4184 37.6922 59.9872L37.6003 59.8953C36.9582 59.2532 36.5974 58.3819 36.5974 57.4736C36.5974 56.5652 36.9582 55.6945 37.6003 55.0518L40.914 51.7381C41.5933 51.2231 42.4356 50.9713 43.2861 51.0292C44.1366 51.0878 44.9367 51.4523 45.5391 52.0554L45.5462 52.062ZM4.06716 45.5262C5.42063 44.4548 6.78172 44.497 8.22022 45.6603C10.0144 47.2247 11.5101 49.1025 12.6339 51.2021C13.2879 52.4259 14.1088 53.5527 15.0733 54.5511C15.0998 54.5902 15.1281 54.6279 15.1577 54.6638C15.2773 54.791 17.978 57.7447 15.2282 62.0388C14.8436 62.6928 15.045 63.5345 15.6852 63.943C16.3255 64.3509 17.1734 64.1797 17.6046 63.5546C19.1803 61.2958 19.6568 58.4478 18.9021 55.7988C19.6002 55.7031 20.2833 55.5162 20.9324 55.2417C26.481 52.964 39.4898 39.462 44.8338 33.7592C45.4898 33.0517 46.4076 32.6437 47.372 32.6311C48.3377 32.616 49.2689 32.9925 49.9525 33.6749C50.6223 34.3428 50.9988 35.2493 50.9988 36.1956C50.9988 37.1411 50.6223 38.0483 49.9525 38.7163L35.5975 53.0429C34.4196 54.2151 33.7574 55.8091 33.7574 57.4711C33.7574 59.1331 34.4196 60.7263 35.5975 61.8986L35.6749 61.976C36.6463 62.9499 37.9142 63.5725 39.2782 63.7462C38.7784 65.8148 39.3865 67.9948 40.8854 69.5063L40.9421 69.5554L40.9987 69.6121H40.9981C42.142 70.7459 43.6887 71.3799 45.2991 71.3749C45.104 73.1998 45.7473 75.0154 47.048 76.3103L47.1538 76.43C47.9696 77.2439 48.9982 77.8111 50.122 78.066L48.0068 80.3996L47.9501 80.4632H47.9508C42.8366 85.9684 35.4976 88.8504 28.0042 88.2963C24.3712 87.9815 20.8729 86.7697 17.8228 84.771H18.4926H19.0919C22.6173 84.5456 25.8392 82.409 28.7162 78.4253C29.148 77.7927 28.9957 76.9309 28.3731 76.4845C27.7505 76.0382 26.8855 76.1704 26.4247 76.7823C24.0766 80.054 21.5596 81.8021 18.9371 81.9784C15.2776 82.2182 12.4643 79.2922 12.4221 79.2499C12.3597 79.1851 12.2911 79.1259 12.2175 79.0737C10.0104 75.5905 8.49438 70.8106 8.56497 64.2036C8.60715 60.4735 8.2691 57.1037 3.69315 50.5605C2.62861 49.066 2.33967 46.9087 4.06708 45.5269L4.06716 45.5262Z" fill="url(#paint3_linear_179_432)"/>
<path d="M26.025 29.6193L22.9082 30.0701L25.1644 32.2702L24.6287 35.3725L27.4137 33.9057L30.1987 35.3725L29.6629 32.2702L31.9192 30.0701L28.8024 29.6193L27.4136 26.7991L26.025 29.6193Z" fill="url(#paint4_linear_179_432)"/>
<path d="M30.5572 12.6628L31.509 14.8058L32.6371 12.7403L34.9707 12.5005L33.3565 10.7945L33.8501 8.49538L31.7273 9.50388L29.6901 8.32666L29.9929 10.6602L28.2446 12.2322L30.5572 12.6628Z" fill="url(#paint5_linear_179_432)"/>
<path d="M11.7962 11.7181L10.0971 10.1033L9.8434 12.4368L7.77734 13.558L9.92092 14.5168L10.3509 16.8297L11.9234 15.0808L14.257 15.3912L13.0792 13.3534L14.0946 11.2382L11.7962 11.7181Z" fill="url(#paint6_linear_179_432)"/>
<defs>
<linearGradient id="paint0_linear_179_432" x1="3.39352" y1="31.4322" x2="18.223" y2="30.584" gradientUnits="userSpaceOnUse">
<stop stop-color="#A13455"/>
<stop offset="1" stop-color="#1A1E44"/>
</linearGradient>
<linearGradient id="paint1_linear_179_432" x1="39.4215" y1="23.7256" x2="42.1685" y2="23.7037" gradientUnits="userSpaceOnUse">
<stop stop-color="#A13455"/>
<stop offset="1" stop-color="#1A1E44"/>
</linearGradient>
<linearGradient id="paint2_linear_179_432" x1="18.2123" y1="16.1275" x2="25.0825" y2="15.987" gradientUnits="userSpaceOnUse">
<stop stop-color="#A13455"/>
<stop offset="1" stop-color="#1A1E44"/>
</linearGradient>
<linearGradient id="paint3_linear_179_432" x1="8.58182" y1="77.1877" x2="65.8797" y2="74.0377" gradientUnits="userSpaceOnUse">
<stop stop-color="#A13455"/>
<stop offset="1" stop-color="#1A1E44"/>
</linearGradient>
<linearGradient id="paint4_linear_179_432" x1="24.2189" y1="33.4196" x2="32.9647" y2="32.8937" gradientUnits="userSpaceOnUse">
<stop stop-color="#A13455"/>
<stop offset="1" stop-color="#1A1E44"/>
</linearGradient>
<linearGradient id="paint5_linear_179_432" x1="29.223" y1="13.3299" x2="35.7517" y2="12.9422" gradientUnits="userSpaceOnUse">
<stop stop-color="#A13455"/>
<stop offset="1" stop-color="#1A1E44"/>
</linearGradient>
<linearGradient id="paint6_linear_179_432" x1="8.71984" y1="15.2976" x2="15.0125" y2="14.9507" gradientUnits="userSpaceOnUse">
<stop stop-color="#A13455"/>
<stop offset="1" stop-color="#1A1E44"/>
</linearGradient>
</defs>
</svg>
