<svg width="196" height="49" viewBox="0 0 196 49" fill="none" xmlns="http://www.w3.org/2000/svg">
<path d="M45.23 37.6463L48.1332 35.0766C49.0551 36.1555 50.3106 37.1167 52.4291 37.1167C53.8219 37.1167 54.7242 36.5086 54.7242 35.4297C54.7242 32.5657 45.8969 33.6838 45.8969 27.034C45.8969 23.5619 48.859 21.5022 52.6841 21.5022C56.215 21.5022 58.1963 23.3657 59.079 24.8173L55.8227 27.2497C55.2538 26.5436 54.2142 25.4647 52.4683 25.4647C51.3306 25.4647 50.546 26.0335 50.546 26.9751C50.546 29.9372 59.4125 28.5052 59.4125 35.1943C59.4125 38.8429 56.2739 41.1184 52.233 41.1184C48.5255 41.1184 46.2304 39.2548 45.23 37.6463Z" fill="white"/>
<path d="M64.5319 14.6367C66.1797 14.6367 67.4351 15.8529 67.4351 17.4614C67.4351 19.07 66.1797 20.2862 64.5319 20.2862C62.9234 20.2862 61.668 19.07 61.668 17.4614C61.668 15.8529 62.9234 14.6367 64.5319 14.6367ZM62.0995 21.9535H67.0232V40.6478H62.0995V21.9535Z" fill="white"/>
<path d="M73.8501 42.0011C74.4582 42.315 76.5963 43.2958 79.1661 43.2958C81.8535 43.2958 84.3055 42.4719 84.3055 39.5883V38.7252C83.9132 39.2548 82.0889 41.1184 78.8326 41.1184C73.4381 41.1184 69.9072 37.0774 69.9072 31.3299C69.9072 25.5824 73.6931 21.5022 79.0287 21.5022C82.1673 21.5022 84.0701 23.2088 84.5997 23.9346V21.973H89.2488V38.2936C89.2488 45.2574 84.7174 47.5132 79.2053 47.5132C76.6356 47.5132 74.0266 46.7286 72.3396 45.8066L73.8501 42.0011ZM79.6565 25.857C76.871 25.857 74.9093 27.9952 74.9093 31.2907C74.9093 34.5862 76.9102 36.7636 79.6957 36.7636C82.5597 36.7636 84.482 34.6254 84.482 31.2907C84.4624 28.1128 82.54 25.857 79.6565 25.857Z" fill="white"/>
<path d="M109.335 29.8588V40.6476H104.411V29.2899C104.411 27.2106 102.979 25.9355 101.312 25.9355C99.272 25.9355 97.9969 27.446 97.9969 29.4468V40.6673H93.0732V21.9731H97.8988V24.1504C98.6835 22.8558 100.469 21.5023 102.901 21.5023C108.197 21.4826 109.335 25.8963 109.335 29.8588Z" fill="white"/>
<path d="M119.301 28.6817C121.204 28.6817 122.655 29.2506 123.342 29.7214V28.5052C123.342 26.8574 122.126 25.7589 119.948 25.7589C118.085 25.7589 116.378 26.367 114.985 27.0732L113.122 23.7188C114.809 22.5811 117.633 21.5022 120.478 21.5022C126.48 21.5022 128.265 24.6408 128.265 28.819V40.6476H123.911L123.597 39.4314C122.636 40.471 121.204 41.1184 119.065 41.1184C115.28 41.1184 112.062 38.8037 112.062 34.8608C112.062 31.173 114.946 28.6817 119.301 28.6817ZM120.242 37.2932C122.106 37.2932 123.46 36.2928 123.46 34.7235C123.46 33.0757 122.106 32.1145 120.203 32.1145C118.3 32.1145 116.986 33.1934 116.986 34.7235C116.986 36.2536 118.379 37.2932 120.242 37.2932Z" fill="white"/>
<path d="M132.463 18.03H137.328V21.9533H140.839V25.955H137.328V33.1737C137.328 35.9592 138.191 36.5281 140.074 36.5281C140.388 36.5281 140.565 36.5281 140.977 36.4888V40.7063C140.977 40.7063 140.231 40.8829 138.878 40.8829C134.405 40.8829 132.444 38.372 132.444 33.311V25.955H130.482V21.9533H132.483V18.03H132.463Z" fill="white"/>
<path d="M152.961 21.4824C158.67 21.4824 163.044 25.6999 163.044 31.3494C163.044 36.9988 158.827 41.0986 152.961 41.0986C147.135 41.0986 142.918 36.9988 142.918 31.3494C142.918 25.6803 147.292 21.4824 152.961 21.4824ZM152.961 36.7438C155.923 36.7438 158.101 34.5272 158.101 31.3494C158.101 28.1715 155.923 25.8372 152.961 25.8372C149.999 25.8372 147.861 28.1323 147.861 31.3494C147.861 34.5272 150.039 36.7438 152.961 36.7438Z" fill="white"/>
<path d="M175.913 26.5042C172.225 26.5042 170.871 28.7993 170.871 32.5067V40.6474H165.948V21.9532H170.773V24.6602C171.597 22.7967 173.461 21.4824 175.913 21.4824V26.5042Z" fill="white"/>
<path d="M181.739 47.0424L184.348 40.1768L177.168 21.9534H182.465L186.643 34.135L190.861 21.9534H196L186.467 47.0424H181.739Z" fill="white"/>
<path d="M22.3185 36.3911C21.9458 36.3911 21.5731 36.2538 21.2985 35.9595L9.68573 24.3468C5.25248 19.9135 4.74246 15.4999 5.09555 12.5967C5.46825 9.55617 6.99832 6.39797 9.23456 4.18134C10.2938 3.12207 13.2559 0.571968 17.6303 0.0815633C20.5335 -0.251912 24.9275 0.277725 29.3607 4.71098L40.9735 16.3238C41.5424 16.8926 41.5424 17.8146 40.9735 18.3834C40.4046 18.9523 39.4827 18.9523 38.9138 18.3834L27.301 6.77068C24.3979 3.86748 21.2593 2.59243 17.9638 2.96514C15.5313 3.22015 13.0401 4.43635 11.255 6.22142C10.5881 6.88837 8.37145 9.34039 7.93989 12.9302C7.54757 16.2453 8.82262 19.4035 11.7062 22.3067L23.319 33.9195C23.8878 34.4883 23.8878 35.4103 23.319 35.9791C23.064 36.2538 22.6912 36.3911 22.3185 36.3911Z" fill="white"/>
<path d="M13.5505 8.49666C10.9219 11.1252 9.82341 15.6762 13.6093 19.4621L25.6929 31.5457C28.9884 34.8412 26.3206 37.8424 25.7517 38.4113C25.3987 38.7644 22.162 41.8049 18.8076 38.4309L6.72406 26.3474C6.15519 25.7785 5.23323 25.7785 4.68398 26.3474C4.11511 26.9162 4.11511 27.8382 4.68398 28.3875L16.7675 40.471C20.5535 44.2569 25.1436 43.1192 27.8114 40.4514C30.44 37.8228 31.5385 33.2719 27.7526 29.486L15.669 17.4024C12.3735 14.1069 15.0413 11.1056 15.6102 10.5367C15.9633 10.1837 19.1999 7.14315 22.5543 10.5171L34.6379 22.6007C35.2067 23.1696 36.1287 23.1696 36.6779 22.6007C37.2468 22.0318 37.2468 21.1099 36.6779 20.5606L24.5944 8.47705C20.8085 4.69113 16.2183 5.84848 13.5505 8.49666Z" fill="white"/>
<path d="M32.1656 44.7866C31.1063 45.8459 28.1443 48.396 23.7699 48.8864C20.8667 49.2199 16.4727 48.6903 12.0394 44.257L0.426652 32.6442C-0.142217 32.0754 -0.142217 31.1534 0.426652 30.6041C0.995521 30.0353 1.91748 30.0353 2.46673 30.6041L14.0795 42.2169C20.6117 48.7491 27.2223 45.6105 30.1059 42.7269C30.7729 42.06 32.9895 39.608 33.4211 36.0182C33.8134 32.7031 32.5383 29.5449 29.6547 26.6417L18.042 15.0485C17.4731 14.4797 17.4731 13.5577 18.042 13.0084C18.6108 12.4396 19.5328 12.4396 20.0821 13.0084L31.6948 24.6212C39.8748 32.7815 35.5788 41.393 32.1656 44.7866Z" fill="white"/>
</svg>
