<svg width="72" height="72" viewBox="0 0 72 72" fill="none" xmlns="http://www.w3.org/2000/svg">
<path fill-rule="evenodd" clip-rule="evenodd" d="M7.81622 8.01593C17.2512 -1.41905 32.4927 -1.41905 41.6849 8.01593C50.394 16.725 51.1199 30.2724 43.6203 39.7085L48.9425 44.7891C50.3941 43.8212 52.5715 44.0633 53.781 45.2728L70.232 61.7238C74.1026 65.5944 65.3935 74.304 61.5228 70.4329L45.0719 53.9819C43.8624 52.7724 43.6203 50.5951 44.5882 49.1434L39.5076 43.8212C30.0726 51.3208 16.5245 50.5951 7.815 41.8858C-1.61997 32.6925 -1.61997 17.452 7.815 8.01715L7.81622 8.01593ZM12.8968 31.967C13.8647 33.6608 10.9615 35.3539 9.99359 33.4186C3.21973 22.0484 11.929 7.77544 24.7512 7.77544C26.9286 7.77544 26.9286 11.1623 24.7512 11.1623H23.7833C13.8647 11.8881 7.81632 22.7747 12.8967 31.968L12.8968 31.967ZM10.9615 11.1613C18.7032 3.6617 31.0418 3.6617 38.5407 11.1613C46.0403 18.903 46.0403 31.2416 38.5407 38.7405C31.041 46.2394 18.7029 46.2401 10.9615 38.7405C3.46186 31.2409 3.46186 18.9028 10.9615 11.1613Z" fill="url(#paint0_linear_179_429)"/>
<defs>
<linearGradient id="paint0_linear_179_429" x1="4.5" y1="37" x2="75" y2="36" gradientUnits="userSpaceOnUse">
<stop stop-color="#A13455"/>
<stop offset="1" stop-color="#1A1E44"/>
</linearGradient>
</defs>
</svg>
