<svg id="b6942215-14b2-40f7-8c48-1a1432d81c3d" data-name="Layer 1" xmlns="http://www.w3.org/2000/svg" width="795.62861" height="450.92692" viewBox="0 0 795.62861 450.92692"><title>observations</title><path d="M285.67923,638.88641l-1.26717-.475c-.27846-.10493-27.99252-10.72312-40.975-34.79939-12.983-24.07742-6.62585-53.06673-6.56012-53.35613l.29921-1.32021,1.26659.475c.27846.10493,27.99194,10.72311,40.975,34.79938,12.983,24.07743,6.62584,53.06673,6.56012,53.35614ZM245.516,602.49124c10.9762,20.35662,32.87672,30.79148,38.42564,33.17362,1.055-5.94729,4.36362-29.997-6.60278-50.33406-10.96525-20.33471-32.87442-30.78571-38.42565-33.17362C237.8576,558.10793,234.55016,582.15538,245.516,602.49124Z" transform="translate(-202.1857 -224.53654)" fill="#3f3d56"/><path d="M254.35869,597.16641c23.33121,14.03683,32.3168,41.91784,32.3168,41.91784s-28.84178,5.12281-52.173-8.914S202.1857,588.2524,202.1857,588.2524,231.02748,583.12958,254.35869,597.16641Z" transform="translate(-202.1857 -224.53654)" fill="#6c63ff"/><path d="M395.54955,605.79509c0,37.00307-27.53449,35-61.5,35s-61.5,2.00307-61.5-35,27.53449-99,61.5-99S395.54955,568.792,395.54955,605.79509Z" transform="translate(-202.1857 -224.53654)" fill="#3f3d56"/><rect x="30.36385" y="415.25854" width="712" height="2" fill="#3f3d56"/><path d="M540.17248,300.2364c-.03292-.10464-.06766-.21062-.10072-.31561.01429.046.03222.09029.04623.13644Z" transform="translate(-202.1857 -224.53654)" fill="#2f2e41"/><polygon points="224.24 322.14 203.24 342.14 186.24 324.14 212.24 311.14 224.24 322.14" fill="#a0616a"/><path d="M399.36192,550.62767s25.44087-1.662,22.46705,5.7647,3.32993,34.72624,3.32993,34.72624,9.45268,49.027-20.43719,29.51815-23.38563-33.06225-23.38563-33.06225-8.7229-13.18753-6.86427-17.82924,16.62925-22.46735,19.45961-20.23586A5.5754,5.5754,0,0,0,399.36192,550.62767Z" transform="translate(-202.1857 -224.53654)" fill="#2f2e41"/><path d="M390.42553,467.67648s112-9,121,14-9,40-9,40l-73,36-23.28312-20.82789,13.28312-12.17211s-75,14-77,3S350.42553,458.67648,390.42553,467.67648Z" transform="translate(-202.1857 -224.53654)" fill="#2f2e41"/><path d="M520.42553,487.67648s20,56,0,53-18-48-18-48Z" transform="translate(-202.1857 -224.53654)" fill="#a0616a"/><path d="M475.92553,373.17648s12.5,6.5,10.5,14.5,8,58,8,58l30,44-25,9s-32-21-37-36-12-38-12-38Z" transform="translate(-202.1857 -224.53654)" fill="#d0cde1"/><circle cx="267.23984" cy="92.13993" r="33" fill="#a0616a"/><path d="M471.92553,340.17648s-4,33-2,46-40-47-40-47,18-13,18-18S471.92553,340.17648,471.92553,340.17648Z" transform="translate(-202.1857 -224.53654)" fill="#a0616a"/><path d="M509.35531,303.98207a38.535,38.535,0,0,0-9.648.0668,12.97088,12.97088,0,0,0-8.24546,4.60828c-2.28227,3.05561-3.04086,7.69688-6.61717,9.02183-2.13118.78955-4.59872.03822-6.73133.82389-2.56015.94319-3.86024,3.77369-4.54121,6.41571s-1.07559,5.50323-2.81875,7.60214-5.496,2.80426-7.03956.55452a21.6201,21.6201,0,0,0-.36666-7.23046,7.32629,7.32629,0,0,0-4.62085-5.21444c-3.92976-1.13816-7.58785,2.27618-10.234,5.39646s-6.19007,6.6-10.16307,5.62345c-4.16911-1.02476-5.59193-6.15368-6.051-10.42228-1.046-9.72476-.89093-20.05108,3.81229-28.62689,6.807-12.4118,22.34493-18.43541,36.36635-16.4893s26.39745,10.6989,35.44266,21.588c1.47026,1.77,2.91757,3.71468,3.23287,5.99394" transform="translate(-202.1857 -224.53654)" fill="#2f2e41"/><path d="M466.92553,379.17648l-11-11-19-38-51,16s-18,5-29,37c0,0-66,85-55,99s13,13,31,2a159.49429,159.49429,0,0,1,36-16l48,5,29-36s43-28,36-60l-12-16Z" transform="translate(-202.1857 -224.53654)" fill="#575a89"/><path d="M459.42553,479.67648l6,4s33,41,17,49-32-40-32-40Z" transform="translate(-202.1857 -224.53654)" fill="#a0616a"/><path d="M414.07836,347.28672a8.58726,8.58726,0,0,1,6.12228,3.27167c3.9677,5.04821,9.881,16.92045,1.22489,37.11809a322.9161,322.9161,0,0,0-17,50s5-1,5,3-4,2,0,4,3-1,4,2c1.0444,3.13319-.09273,2.99408,2.28457,4.13946a19.30868,19.30868,0,0,1,6.10922,5.31191,7.05883,7.05883,0,0,0,1.60621,1.54863l37,19s5,20-10,20c0,0-92-26-90-46C362.38087,431.12314,366.24786,343.70573,414.07836,347.28672Z" transform="translate(-202.1857 -224.53654)" fill="#d0cde1"/><polygon points="192.24 375.14 192.24 401.14 164.24 399.14 170.24 373.14 192.24 375.14" fill="#a0616a"/><path d="M374.42553,611.67648s23-11,23-3,16,31,16,31,27,42-8,35-34-22-34-22-13-9-13-14,7.08591-27.03893,10.543-26.01947A5.57538,5.57538,0,0,0,374.42553,611.67648Z" transform="translate(-202.1857 -224.53654)" fill="#2f2e41"/><path d="M346.42553,469.67648s71-16,68,10-6,41-6,41l-12,85-28-3-2-16s-6-6-3-10-5-43-5-43-48,10-52-19,6-38,6-38Z" transform="translate(-202.1857 -224.53654)" fill="#2f2e41"/><rect x="418.50184" y="338.26916" width="179.12676" height="2.01266" fill="#3f3d56"/><rect x="418.50184" y="352.35778" width="179.12676" height="2.01266" fill="#3f3d56"/><rect x="418.50184" y="366.4464" width="179.12676" height="2.01266" fill="#3f3d56"/><rect x="422.14484" y="287.71505" width="40.29028" height="32.73585" fill="#d0cde1"/><path d="M658.74515,539.95115h-41.969V505.53654h41.969Zm-40.29028-1.67876h38.61151V507.2153H618.45487Z" transform="translate(-202.1857 -224.53654)" fill="#3f3d56"/><circle cx="382.24083" cy="298.55799" r="8" fill="#6c63ff"/><rect x="418.50184" y="57.26916" width="179.12676" height="2.01266" fill="#3f3d56"/><rect x="418.50184" y="71.35778" width="179.12676" height="2.01266" fill="#3f3d56"/><rect x="418.50184" y="85.4464" width="179.12676" height="2.01266" fill="#3f3d56"/><rect x="422.14484" y="6.71505" width="40.29028" height="32.73585" fill="#d0cde1"/><path d="M658.74515,258.95115h-41.969V224.53654h41.969Zm-40.29028-1.67876h38.61151V226.2153H618.45487Z" transform="translate(-202.1857 -224.53654)" fill="#3f3d56"/><circle cx="382.24083" cy="17.55799" r="8" fill="#6c63ff"/><rect x="616.50184" y="218.26916" width="179.12676" height="2.01266" fill="#3f3d56"/><rect x="616.50184" y="232.35778" width="179.12676" height="2.01266" fill="#3f3d56"/><rect x="616.50184" y="246.4464" width="179.12676" height="2.01266" fill="#3f3d56"/><rect x="620.14484" y="167.71505" width="40.29028" height="32.73585" fill="#d0cde1"/><path d="M856.74515,419.95115h-41.969V385.53654h41.969Zm-40.29028-1.67876h38.61151V387.2153H816.45487Z" transform="translate(-202.1857 -224.53654)" fill="#3f3d56"/><circle cx="580.24083" cy="178.55799" r="8" fill="#6c63ff"/></svg>